#!OML:ASF E:\Style4\Style4.ASF
:FULLY-SPECIFIED
:DEGREES
1182
root 0.118971 17.8269 -1.21559 0.808713 -2.62418 2.23307
lowerback 5.59609 1.86029 -0.0197694
upperback 1.54492 2.47747 0.189249
thorax -1.55468 1.23591 0.0360962
lowerneck -4.23127 -7.21038 -6.56735
upperneck 16.5667 -9.41745 1.63042
head 6.11477 -4.85089 0.94406
rclavicle -2.79292e-014 3.18055e-015
rhumerus -7.00102 16.2819 -80.7801
rradius 80.2312
rwrist -27.8876
rhand -25.0797 25.1875
rfingers 7.12502
rthumb 1.43456 -4.78738
lclavicle -2.79292e-014 3.18055e-015
lhumerus -31.6306 -42.2619 96.9408
lradius 74.8455
lwrist -0.0729668
lhand -14.3785 23.7629
lfingers 7.12502
lthumb 11.7641 53.4125
rfemur -12.9776 5.30588 15.7032
rtibia 30.9813
rfoot -17.5458 -12.4996
rtoes -13.4171
lfemur -10.8519 -1.7926 -21.5953
ltibia 28.7204
lfoot -19.0546 10.2046
ltoes -14.4703
1183
root 0.122544 17.828 -1.2152 0.855257 -2.55363 2.08901
lowerback 5.64739 1.82512 0.115643
upperback 1.5069 2.4397 0.253146
thorax -1.6194 1.21666 0.0258779
lowerneck -4.18519 -7.36587 -6.53369
upperneck 16.5402 -9.60908 1.46628
head 6.09742 -4.95343 0.875168
rclavicle 1.86361e-014 5.96354e-015
rhumerus -6.83937 14.5562 -80.6879
rradius 80.9642
rwrist -30.1871
rhand -25.0566 25.8745
rfingers 7.12502
rthumb 1.4569 -4.10027
lclavicle 1.86361e-014 5.96354e-015
lhumerus -32.5761 -42.3107 97.5662
lradius 74.7233
lwrist -0.106605
lhand -14.2488 23.7088
lfingers 7.12502
lthumb 11.8892 53.3512
rfemur -12.9703 5.3342 15.8569
rtibia 30.9015
rfoot -17.5585 -12.5718
rtoes -13.4023
lfemur -10.9459 -1.84931 -21.4434
ltibia 28.7912
lfoot -19.0811 10.089
ltoes -13.8584
1184
root 0.125144 17.8275 -1.21531 0.847132 -2.5085 1.97432
lowerback 5.74456 1.79406 0.19467
upperback 1.49248 2.40474 0.331576
thorax -1.68847 1.19886 0.0608617
lowerneck -4.07886 -7.52598 -6.59141
upperneck 16.4198 -9.80687 1.34304
head 6.04693 -5.06151 0.837087
rclavicle 6.85807e-015 6.36111e-015
rhumerus -6.61008 12.8496 -80.5769
rradius 81.6238
rwrist -32.6254
rhand -25.311 26.3817
rfingers 7.12502
rthumb 1.21122 -3.5946
lclavicle 6.85807e-015 6.36111e-015
lhumerus -33.4092 -42.3162 98.1926
lradius 74.5362
lwrist -0.149957
lhand -14.1613 23.5988
lfingers 7.12502
lthumb 11.9736 53.2363
rfemur -12.9241 5.36938 15.9815
rtibia 30.8421
rfoot -17.491 -12.663
rtoes -13.3433
lfemur -10.9964 -1.88756 -21.3293
ltibia 28.8858
lfoot -19.1532 10.1558
ltoes -14.4548
1185
root 0.130481 17.8261 -1.21647 0.905019 -2.42922 1.94438
lowerback 5.79555 1.74493 0.199996
upperback 1.43963 2.34134 0.389992
thorax -1.77341 1.16706 0.119476
lowerneck -3.92767 -7.64514 -6.73097
upperneck 16.3127 -9.95947 1.31302
head 6.00011 -5.14645 0.845801
rclavicle -1.09332e-015 -1.27222e-014
rhumerus -6.41907 11.1664 -80.4644
rradius 82.2335
rwrist -35.003
rhand -25.7609 26.6318
rfingers 7.12502
rthumb 0.776704 -3.34649
lclavicle -1.09332e-015 -1.27222e-014
lhumerus -34.2369 -42.2268 98.7624
lradius 74.3659
lwrist -0.279401
lhand -13.9991 23.46
lfingers 7.12502
lthumb 12.13 53.0883
rfemur -12.9764 5.32234 15.9914
rtibia 30.8203
rfoot -17.421 -12.7255
rtoes -13.5413
lfemur -11.1404 -1.98973 -21.3179
ltibia 28.9897
lfoot -19.207 10.2404
ltoes -14.8739
1186
root 0.133858 17.8256 -1.21859 0.92054 -2.3301 1.94324
lowerback 5.89497 1.69974 0.15491
upperback 1.40301 2.28013 0.438978
thorax -1.87012 1.13654 0.195377
lowerneck -3.90901 -7.77974 -6.83134
upperneck 16.3411 -10.1264 1.25791
head 6.01615 -5.23721 0.831249
rclavicle 1.71949e-014 5.56597e-015
rhumerus -6.27041 9.34492 -80.4321
rradius 82.7518
rwrist -37.2904
rhand -26.0249 26.8665
rfingers 7.12502
rthumb 0.52172 -3.11262
lclavicle 1.71949e-014 5.56597e-015
lhumerus -35.109 -42.1606 99.2744
lradius 74.3029
lwrist -0.372717
lhand -13.7781 23.2651
lfingers 7.12502
lthumb 12.3431 52.8808
rfemur -12.9886 5.26634 15.9789
rtibia 30.831
rfoot -17.4644 -12.7102
rtoes -13.3643
lfemur -11.2342 -2.05324 -21.3275
ltibia 29.0887
lfoot -19.1372 10.1846
ltoes -14.8383
1187
root 0.135194 17.8243 -1.21977 0.943289 -2.25675 1.91499
lowerback 5.97454 1.6685 0.129058
upperback 1.36807 2.23845 0.48333
thorax -1.95304 1.11578 0.255216
lowerneck -3.8667 -7.92414 -6.83239
upperneck 16.3264 -10.3029 1.11339
head 6.00473 -5.33294 0.775158
rclavicle -1.59525e-014 -3.18055e-015
rhumerus -6.16361 7.46459 -80.442
rradius 83.2006
rwrist -39.6504
rhand -26.0863 27.0747
rfingers 7.12502
rthumb 0.462418 -2.90458
lclavicle -1.59525e-014 -3.18055e-015
lhumerus -36.028 -42.0899 99.8087
lradius 74.2158
lwrist -0.533734
lhand -13.6836 23.0377
lfingers 7.12502
lthumb 12.4341 52.6478
rfemur -13.0098 5.27291 16.01
rtibia 30.8511
rfoot -17.4603 -12.7594
rtoes -13.334
lfemur -11.3267 -2.08118 -21.291
ltibia 29.1847
lfoot -19.1466 10.0322
ltoes -14.0917
1188
root 0.137732 17.8244 -1.21646 1.02907 -2.20572 1.83041
lowerback 5.92312 1.62938 0.168533
upperback 1.33409 2.19027 0.546182
thorax -1.9601 1.09169 0.302238
lowerneck -3.77147 -8.06546 -6.85318
upperneck 16.2252 -10.4756 0.966563
head 5.95755 -5.42798 0.726114
rclavicle -2.4699e-014 -3.18055e-015
rhumerus -6.01473 5.63423 -80.4616
rradius 83.5266
rwrist -41.9729
rhand -26.3467 27.4178
rfingers 7.12502
rthumb 0.210891 -2.56183
lclavicle -2.4699e-014 -3.18055e-015
lhumerus -36.8107 -41.9247 100.259
lradius 74.033
lwrist -0.80494
lhand -13.6475 22.5925
lfingers 7.12502
lthumb 12.469 52.2006
rfemur -13.0923 5.24207 16.0951
rtibia 30.8682
rfoot -17.4592 -12.8237
rtoes -13.3681
lfemur -11.462 -2.08073 -21.1982
ltibia 29.2797
lfoot -19.2137 10.0128
ltoes -14.2671
1189
root 0.141689 17.8244 -1.21244 1.08254 -2.13255 1.77443
lowerback 5.93394 1.59265 0.195356
upperback 1.28172 2.14474 0.600766
thorax -2.02088 1.0689 0.345393
lowerneck -3.6921 -8.22282 -6.88701
upperneck 16.1984 -10.6666 0.804017
head 5.9371 -5.53398 0.670663
rclavicle -3.8266e-015 5.1684e-015
rhumerus -5.92236 3.75884 -80.4751
rradius 83.7762
rwrist -44.0822
rhand -26.8129 27.6544
rfingers 7.12502
rthumb -0.239402 -2.32521
lclavicle -3.8266e-015 5.1684e-015
lhumerus -37.547 -41.7569 100.69
lradius 73.8576
lwrist -1.03615
lhand -13.6007 22.0768
lfingers 7.12502
lthumb 12.5141 51.6821
rfemur -13.123 5.20044 16.1426
rtibia 30.8795
rfoot -17.5426 -12.8449
rtoes -13.2345
lfemur -11.5742 -2.08086 -21.1471
ltibia 29.3914
lfoot -19.2874 10.0378
ltoes -14.7934
1190
root 0.145323 17.822 -1.20921 1.0754 -2.04919 1.74729
lowerback 6.00955 1.55482 0.170835
upperback 1.2413 2.09476 0.650752
thorax -2.10711 1.04411 0.411284
lowerneck -3.56241 -8.36094 -6.96086
upperneck 16.1502 -10.8452 0.730667
head 5.90779 -5.63049 0.652634
rclavicle -6.95746e-015 -1.15295e-014
rhumerus -5.89354 1.79616 -80.5475
rradius 83.9299
rwrist -45.8703
rhand -27.1882 27.8864
rfingers 7.12502
rthumb -0.601852 -2.09247
lclavicle -6.95746e-015 -1.15295e-014
lhumerus -38.3292 -41.6139 101.163
lradius 73.7552
lwrist -1.11738
lhand -13.608 21.8209
lfingers 7.12502
lthumb 12.5071 51.4266
rfemur -13.0888 5.14583 16.1632
rtibia 30.8945
rfoot -17.6148 -12.821
rtoes -12.9411
lfemur -11.6212 -2.15782 -21.1314
ltibia 29.5001
lfoot -19.3504 10.0316
ltoes -14.7819
1191
root 0.147841 17.8185 -1.20313 1.06971 -2.01104 1.63361
lowerback 6.02199 1.53674 0.216288
upperback 1.22923 2.07535 0.718336
thorax -2.12724 1.03429 0.45618
lowerneck -3.39723 -8.48005 -7.04312
upperneck 16.0757 -11.0089 0.716855
head 5.86729 -5.71625 0.657791
rclavicle 1.63997e-014 -3.57812e-015
rhumerus -5.88531 -0.185136 -80.6243
rradius 84.0311
rwrist -47.4371
rhand -27.586 28.1563
rfingers 7.12502
rthumb -0.986102 -1.82116
lclavicle 1.63997e-014 -3.57812e-015
lhumerus -38.9774 -41.4894 101.57
lradius 73.5356
lwrist -1.15159
lhand -13.5784 21.6311
lfingers 7.12502
lthumb 12.5356 51.235
rfemur -13.0688 5.11203 16.2823
rtibia 30.9205
rfoot -17.6324 -12.8396
rtoes -12.9861
lfemur -11.646 -2.19034 -21.0166
ltibia 29.5975
lfoot -19.4605 9.9897
ltoes -14.4749
1192
root 0.153419 17.815 -1.19196 1.02404 -1.99991 1.60756
lowerback 5.95368 1.53505 0.197022
upperback 1.27533 2.0723 0.769727
thorax -2.04429 1.03305 0.522745
lowerneck -3.28356 -8.61624 -7.12035
upperneck 16.0111 -11.1853 0.655
head 5.83639 -5.81055 0.643971
rclavicle -1.55549e-014 -5.96354e-015
rhumerus -5.80961 -2.17236 -80.6327
rradius 83.9978
rwrist -48.9081
rhand -27.8823 28.4073
rfingers 7.12502
rthumb -1.27227 -1.5687
lclavicle -1.55549e-014 -5.96354e-015
lhumerus -39.5071 -41.3493 101.965
lradius 73.2321
lwrist -1.17905
lhand -13.5574 21.4816
lfingers 7.12502
lthumb 12.5559 51.0843
rfemur -12.9975 5.03523 16.2913
rtibia 30.9516
rfoot -17.6649 -12.8006
rtoes -13.2527
lfemur -11.6044 -2.17632 -21.0168
ltibia 29.6963
lfoot -19.5425 10.0021
ltoes -14.599
1193
root 0.159614 17.8127 -1.17771 1.00934 -2.0491 1.64074
lowerback 5.80961 1.54959 0.110105
upperback 1.31973 2.08617 0.812875
thorax -1.92311 1.04055 0.619584
lowerneck -3.22807 -8.75115 -7.1786
upperneck 15.9855 -11.3498 0.539999
head 5.82305 -5.90131 0.608287
rclavicle 1.98785e-016 -8.34896e-015
rhumerus -5.76942 -4.18274 -80.6604
rradius 83.8698
rwrist -50.3396
rhand -28.084 28.6376
rfingers 7.12502
rthumb -1.46708 -1.33709
lclavicle 1.98785e-016 -8.34896e-015
lhumerus -40.0503 -41.1368 102.357
lradius 72.9818
lwrist -1.13899
lhand -13.31 21.7633
lfingers 7.12502
lthumb 12.7943 51.3512
rfemur -12.9659 5.01121 16.2325
rtibia 30.9929
rfoot -17.7062 -12.7676
rtoes -13.7437
lfemur -11.5815 -2.1422 -21.0868
ltibia 29.7913
lfoot -19.6071 10.0321
ltoes -14.7184
1194
root 0.162057 17.8098 -1.16829 1.00835 -2.07432 1.59115
lowerback 5.75705 1.54445 0.0477541
upperback 1.32106 2.0774 0.905878
thorax -1.89801 1.03662 0.752149
lowerneck -3.18039 -8.86814 -7.3
upperneck 15.9712 -11.4881 0.450275
head 5.81898 -5.98132 0.590976
rclavicle 2.9271e-014 1.51076e-014
rhumerus -5.81767 -6.21224 -80.7296
rradius 83.7274
rwrist -51.7595
rhand -28.2627 28.8445
rfingers 7.12502
rthumb -1.6396 -1.1289
lclavicle 2.9271e-014 1.51076e-014
lhumerus -40.619 -40.8869 102.769
lradius 72.7794
lwrist -1.02751
lhand -12.8158 22.2553
lfingers 7.12502
lthumb 13.2708 51.8129
rfemur -12.9558 5.01843 16.2841
rtibia 31.0391
rfoot -17.7795 -12.7303
rtoes -13.4374
lfemur -11.5787 -2.11166 -21.0341
ltibia 29.8534
lfoot -19.6572 10.0008
ltoes -14.7022
